<svg width="384" height="72" viewBox="0 0 384 72" fill="none" xmlns="http://www.w3.org/2000/svg">
<path fill-rule="evenodd" clip-rule="evenodd" d="M290.258 17.1096C290.246 17.322 290.197 17.5412 290.233 17.745C290.299 18.1127 290.417 18.4718 290.514 18.8343C290.844 18.6019 291.253 18.4313 291.489 18.1264C292.789 16.4474 294.054 14.741 295.316 13.0329C296.082 11.9967 296.251 10.8972 295.483 9.78738C294.801 8.80145 293.817 8.48175 292.689 8.78375C291.386 9.13142 290.861 10.1122 290.757 11.3956C290.604 13.3012 290.425 15.2051 290.258 17.1096ZM214.419 39.2831C214.422 33.6438 209.873 29.0071 204.287 28.954C198.728 28.9014 194.073 33.5034 193.996 39.1278C193.916 44.992 198.444 49.566 204.292 49.5272C210.006 49.4901 214.418 45.028 214.419 39.2831ZM46.5763 53.8968C46.5763 58.8401 46.6065 63.7835 46.5643 68.7268C46.5427 71.1788 46.3945 71.2793 44.028 71.3467C43.0631 71.3741 42.0964 71.3764 41.1315 71.3461C38.7838 71.273 38.643 71.1805 38.6316 68.6892C38.5969 61.4891 38.6191 54.289 38.618 47.0889C38.618 46.2291 38.6322 45.3688 38.5963 44.5108C38.5843 44.2053 38.4435 43.905 38.362 43.6025C38.0127 43.7418 37.5772 43.7914 37.327 44.0335C34.4726 46.796 31.6445 49.5866 28.8129 52.3731C24.9805 56.145 20.3769 57.7235 15.0404 57.3056C7.91703 56.7478 1.8196 51.5093 0.219147 44.5279C-0.289827 42.3088 -0.0327748 41.9606 2.30292 41.7265C2.72982 41.6837 3.15957 41.6763 3.58818 41.6489C6.98572 41.4319 6.98572 41.4319 8.50409 44.4879C10.4915 48.4893 15.1082 50.4674 19.3915 49.1532C23.5311 47.883 26.0657 44.0757 25.632 39.7781C25.2079 35.5734 21.6947 32.2577 17.0848 32.0704C13.1983 31.9129 9.69531 30.9161 6.63861 28.479C1.70332 24.545 -0.361072 17.9734 1.44684 11.9625C3.25419 5.95158 8.59187 1.53059 14.7805 0.918595C22.866 0.118775 30.1255 4.92683 32.0104 12.3307C32.6864 14.9865 32.5268 15.2274 29.8007 15.6054C29.27 15.679 28.7348 15.727 28.2002 15.7692C25.3094 15.9998 25.3094 15.9981 24.0082 13.2761C22.2504 9.59901 18.186 7.80926 14.2732 8.98929C10.5856 10.102 8.30518 13.5895 8.7657 17.4111C9.20115 21.018 12.2641 23.7697 16.2886 24.1647C17.673 24.3012 19.0951 24.2738 20.4362 24.5918C26.2794 25.9779 30.3096 29.5214 32.5861 35.0933C33.2877 36.8123 33.388 36.8328 34.6704 35.5974C37.763 32.6174 40.8556 29.6362 43.8884 26.595C53.8781 16.5753 70.1789 21.0083 74.2354 34.0589C74.2992 34.2644 74.379 34.4671 74.4172 34.6766C74.6337 35.8737 75.1957 35.7299 75.8877 35.0602C78.819 32.2223 81.7685 29.4027 84.6719 26.5362C87.4305 23.8131 90.6781 22.0439 94.4974 21.409C101.601 20.229 107.304 22.8197 112.022 28.0285C112.859 28.9528 112.697 29.7224 111.887 30.5342C107.337 35.095 102.788 39.6565 98.2592 44.239C97.2806 45.2289 96.4587 45.1199 95.5313 44.1734C90.547 39.0856 90.9295 40.6264 95.1461 36.2214C96.8537 34.4374 98.649 32.7378 100.344 30.9424C101.243 29.9901 101.079 29.631 99.773 29.2765C94.4439 27.8316 88.5738 31.7051 87.4995 37.3763C86.4086 43.1355 90.5727 48.849 96.3088 49.4667C99.8613 49.8486 102.813 48.6942 105.305 46.1281C111.514 39.7341 117.784 33.4006 123.997 27.0112C126.773 24.1567 130.015 22.2357 133.95 21.4713C139.092 20.4728 143.747 21.6146 147.99 24.5666C150.214 26.1143 150.192 26.4101 148.225 28.4738C148.077 28.6291 147.931 28.7884 147.769 28.9294C146.807 29.7686 145.941 31.0508 144.843 31.2992C143.949 31.5013 142.775 30.464 141.725 29.977C137.146 27.8527 131.731 29.3382 128.898 33.4954C126.019 37.7177 126.742 43.6053 130.554 46.9799C134.299 50.2962 139.994 50.4281 143.866 47.2516C144.609 46.6419 145.266 45.9214 145.934 45.2244C150.018 40.9581 154.023 36.613 158.206 32.4484C159.856 30.8059 160.602 29.1355 160.546 26.7806C160.4 20.5516 160.51 14.3157 160.49 8.08329C160.482 5.33444 160.484 5.00732 163.382 4.69733C168.866 4.11102 168.339 4.12586 168.342 9.06065C168.344 12.8217 168.312 16.5839 168.359 20.3443C168.382 22.2637 168.444 22.3065 170.371 22.3459C172.731 22.3938 175.093 22.3185 177.452 22.3761C179.307 22.4218 179.55 22.6062 179.549 24.3982C179.547 31.4425 180.3 30.0369 174.125 30.1819C172.731 30.2151 171.336 30.2208 169.942 30.1871C168.882 30.1614 168.349 30.5901 168.351 31.684C168.36 37.1645 168.348 42.6451 168.377 48.1256C168.379 48.4944 168.66 48.8621 168.812 49.2309C169.184 49.0688 169.639 48.9934 169.915 48.7291C170.921 47.7637 171.869 46.7372 172.836 45.7302C178.86 39.4561 184.817 33.1163 190.922 26.9216C200.91 16.7843 217.453 20.5835 221.49 33.939C222.101 35.9611 222.247 38.1567 222.37 40.2856C222.517 42.8563 222.397 45.4419 222.432 48.0212C222.437 48.4242 222.648 48.8244 222.765 49.2263C223.214 48.9997 223.774 48.8758 224.093 48.5293C225.763 46.711 227.372 44.8367 229.003 42.9813C233.612 37.7394 238.18 32.4609 242.839 27.2647C248.706 20.7194 257.917 19.2237 265.4 23.5293C266.233 24.0083 267.006 24.5969 267.786 25.1627C268.916 25.9819 268.941 26.8571 267.895 27.7905C267.415 28.2186 266.982 28.7005 266.527 29.1566C264.082 31.608 264.082 31.608 261.01 30.0946C256.368 27.8087 250.794 29.2748 247.902 33.5416C245.058 37.7388 245.824 43.6967 249.636 47.0284C253.499 50.4041 259.306 50.3967 263.196 46.9987C263.679 46.5757 264.123 46.1041 264.564 45.6354C270.161 39.6959 275.727 33.7272 281.372 27.8344C282.5 26.6561 282.987 25.459 282.957 23.8302C282.877 19.4258 282.815 15.0139 282.991 10.6146C283.211 5.09752 287.541 0.963695 293.008 0.828394C297.396 0.719924 300.756 2.60786 302.686 6.52932C304.658 10.5387 304.288 14.5378 301.34 17.9734C298.616 21.1487 295.716 24.1853 292.741 27.1277C291.242 28.6108 290.664 30.166 290.723 32.2526C290.853 36.8699 290.742 41.4936 290.78 46.1144C290.79 47.15 291.012 48.1833 291.137 49.2178C292.043 48.5498 293.064 47.9932 293.838 47.1968C300.27 40.5716 306.667 33.9116 313.054 27.2418C315.798 24.376 318.983 22.3356 322.923 21.5472C330.275 20.0766 336.167 22.6399 341.089 28.0148C341.925 28.9288 341.831 29.6744 341 30.5051C336.446 35.0614 331.897 39.6239 327.368 44.2065C326.416 45.1701 325.597 45.1827 324.641 44.2116C319.613 39.105 320.044 40.5961 324.2 36.2437C325.905 34.4573 327.703 32.7607 329.403 30.9698C330.368 29.9536 330.247 29.6624 328.928 29.2953C323.601 27.8145 317.604 31.7017 316.598 37.2867C315.531 43.2108 319.501 48.7776 325.28 49.4558C328.96 49.8874 331.977 48.6474 334.534 45.974C341.734 38.4479 348.986 30.9721 356.219 23.4774C356.816 22.8597 357.424 22.2528 358.023 21.6363C358.778 20.857 359.528 20.8701 360.205 21.7053C364.188 26.6236 368.201 31.5184 372.109 36.496C373.303 38.0157 373.181 38.1379 374.608 36.7215C375.751 35.5871 376.859 34.418 377.971 33.2522C378.782 32.4016 379.511 32.3902 380.465 33.1586C385.065 36.8648 385.101 37.1554 381.009 41.4171C377.215 45.3671 373.492 49.3873 369.624 53.2608C365.207 57.6824 358.663 58.6757 353.301 55.8795C352.451 55.4365 351.655 54.8713 350.891 54.2867C350.162 53.7284 350.141 53.0113 350.772 52.3462C351.658 51.4111 352.626 50.5508 353.475 49.5848C354.512 48.4054 355.453 47.9698 357.049 48.8689C359.176 50.0672 361.401 49.739 363.393 48.2564C366.398 46.0213 367.095 42.8352 364.915 39.7923C363.233 37.4465 361.177 35.3696 359.284 33.1751C358.434 32.1875 357.813 32.808 357.185 33.4731C354.825 35.9702 352.458 38.4604 350.093 40.9547C346.769 44.4617 343.483 48.0046 340.116 51.4705C330.323 61.5496 314.829 58.4965 309.61 45.4813C309.49 45.1833 309.424 44.8641 309.319 44.5598C309.001 43.631 308.508 43.3496 307.736 44.1442C307.212 44.6837 306.685 45.2192 306.163 45.7604C303.331 48.6977 300.487 51.6241 297.671 54.5767C295.004 57.3729 291.768 58.1437 288.269 56.7598C284.749 55.3685 282.96 52.5266 282.955 48.6885C282.953 45.3574 283.031 42.0268 283.043 38.6951C283.044 38.324 282.845 37.9523 282.739 37.5813C282.393 37.8062 281.98 37.9706 281.712 38.2658C278.968 41.2864 276.249 44.3286 273.522 47.3641C272.158 48.8815 270.836 50.44 269.418 51.9049C260.571 61.0421 245.404 58.5039 239.98 46.9941C239.797 46.6059 239.641 46.2046 239.466 45.8124C238.658 44.0049 238.631 43.9821 237.237 45.5389C235.231 47.7791 233.269 50.0575 231.285 52.3166C230.577 53.1232 229.894 53.9573 229.139 54.7183C225.741 58.1391 220.953 58.3235 217.244 55.2041C215.494 53.7329 215.494 53.7329 213.554 54.8496C203.645 60.5511 191.614 56.4532 187.315 45.9094C187.194 45.6114 187.128 45.2917 187.007 44.9937C186.291 43.2354 186.211 43.184 184.944 44.4765C182.237 47.2356 179.582 50.0461 176.906 52.8355C176.237 53.5326 175.582 54.2445 174.894 54.9227C172.329 57.4494 169.232 58.0266 165.978 56.8289C162.688 55.6169 160.819 53.0427 160.571 49.4878C160.429 47.4554 160.525 45.4065 160.448 43.3673C160.435 43.0139 160.092 42.6736 159.902 42.3277C159.638 42.4927 159.327 42.612 159.117 42.8295C156.135 45.9209 153.241 49.1007 150.179 52.1099C144.954 57.2474 138.678 58.5884 131.766 56.5155C126.549 54.9506 122.906 51.4243 120.717 46.4238C120.416 45.7376 120.203 45.0137 119.956 44.3047C119.633 43.3792 119.234 43.0932 118.426 43.9421C115.982 46.5077 113.489 49.0265 111.022 51.5698C107.241 55.469 102.689 57.5785 97.2156 57.3689C89.4989 57.0727 84.0871 53.2911 80.8879 46.2828C80.7101 45.8923 80.5579 45.4887 80.4109 45.0856C79.512 42.6211 79.5058 42.6125 77.5183 44.5302C74.8914 47.0649 72.2707 49.606 69.6591 52.1573C67.3856 54.378 64.7421 55.9491 61.6774 56.7986C61.3679 56.8848 61.0613 56.987 60.7467 57.0521C57.2665 57.7777 56.9165 57.4843 56.9 53.834C56.8977 53.2968 56.8886 52.759 56.9023 52.2224C56.9593 49.981 56.9621 49.981 59.2972 49.2954C66.8629 47.0758 69.6819 38.3839 64.6349 32.651C61.7549 29.3798 58.1271 28.2164 53.8826 29.4626C49.8302 30.6518 46.8869 34.1279 46.7194 38.4262C46.5193 43.5756 46.6721 48.7393 46.6721 53.8968C46.6407 53.8968 46.6088 53.8968 46.5763 53.8968Z" fill="white"/>
</svg>
